<svg id="f8484c06-3744-46b9-84e3-772d560c16fb" data-name="Layer 1" xmlns="http://www.w3.org/2000/svg" viewBox="0 0 138.16 233.5"><title>forward icon</title><path d="M134.42,74.5c6,3.68,11.81,7.62,17.5,11.63s11.28,8.15,16.82,12.33q16.53,12.6,32.27,26c21,17.84,41.12,36.59,60.57,56L272.18,191l-10.6,10.63Q247,216.29,231.81,230.37t-30.95,27.52q-15.8,13.44-32.38,26.09c-5.55,4.19-11.14,8.35-16.87,12.36s-11.52,8-17.58,11.66c3.68-6.06,7.63-11.86,11.65-17.58s8.17-11.32,12.36-16.88q12.66-16.59,26.1-32.37t27.52-30.95q14.07-15.18,28.71-29.77v21.21c-19.4-19.45-38.15-39.56-56-60.57q-13.4-15.74-26-32.27c-4.18-5.54-8.32-11.11-12.33-16.81S138.1,80.53,134.42,74.5Z" transform="translate(-134.03 -74.5)" style="fill:#4d4d4d"/></svg>