<svg id="a4b7cc39-b84d-4e4d-9c0c-04eeac2db6e6" data-name="f8484c06-3744-46b9-84e3-772d560c16fb" xmlns="http://www.w3.org/2000/svg" viewBox="0 0 581 581"><title>forward 3</title><path d="M316.23,164.67c10.59,6.5,20.84,13.45,30.89,20.53S367,199.59,376.81,207q29.18,22.23,57,45.89c37.06,31.49,72.58,64.58,106.91,98.84l18.71,18.61-18.71,18.76q-25.74,25.88-52.55,50.73T433.5,488.38q-27.88,23.72-57.15,46c-9.8,7.39-19.67,14.74-29.78,21.82s-20.33,14.12-31,20.58c6.5-10.7,13.47-20.94,20.56-31s14.42-20,21.82-29.8q22.35-29.28,46.07-57.14t48.58-54.63q24.82-26.79,50.67-52.54v37.43C469,354.79,435.9,319.3,404.4,282.21q-23.65-27.78-45.9-57c-7.38-9.78-14.68-19.61-21.76-29.67S322.72,175.32,316.23,164.67Z" transform="translate(-122.01 -68.5)" style="fill:#4d4d4d"/><circle cx="290.5" cy="290.5" r="288" style="fill:none;stroke:#000;stroke-miterlimit:10;stroke-width:5px"/></svg>